<svg width="78" height="69" viewBox="0 0 78 69" fill="none" xmlns="http://www.w3.org/2000/svg">
<g clip-path="url(#clip0_115_13)">
<path d="M75.8549 20.5275C74.2949 18.975 72.1499 17.94 69.8099 17.94H39.7799C38.8049 17.94 37.8299 18.63 37.8299 19.665C37.8299 20.7 38.8049 21.39 39.7799 21.39H69.8099C70.9799 21.39 72.1499 21.9075 72.9299 22.5975C73.7099 23.46 74.0999 24.495 73.7099 25.53L71.9549 34.155H50.5049C49.5299 34.155 48.5549 34.845 48.5549 35.88C48.5549 36.915 49.5299 37.605 50.5049 37.605H71.3699L69.6149 45.885C69.4199 47.0925 68.0549 47.955 66.6899 47.955H29.2499C27.8849 47.955 26.7149 47.0925 26.3249 45.885L18.7199 8.45251C18.5249 7.59001 17.7449 7.07251 16.7699 7.07251H1.75493C0.779932 7.07251 -0.195068 7.76251 -0.195068 8.79751C-0.195068 9.83251 0.779932 10.5225 1.75493 10.5225H15.2099L22.6199 46.7475C23.0099 49.1625 24.9599 50.8875 27.4949 51.5775C26.5199 52.785 25.7399 54.3375 25.7399 56.0625C25.7399 60.375 29.6399 63.825 34.5149 63.825C39.3899 63.825 43.2899 60.375 43.2899 56.0625C43.2899 54.51 42.7049 52.9575 41.7299 51.75H53.6249C52.6499 52.9575 52.0649 54.51 52.0649 56.0625C52.0649 60.375 55.9649 63.825 60.8399 63.825C65.7149 63.825 69.6149 60.375 69.6149 56.0625C69.6149 54.3375 69.0299 52.785 68.0549 51.5775C70.5899 51.06 72.7349 49.1625 73.3199 46.7475L77.6099 26.3925C77.9999 24.3225 77.4149 22.2525 75.8549 20.5275ZM39.3899 55.89C39.3899 58.305 37.2449 60.2025 34.5149 60.2025C31.7849 60.2025 29.6399 58.305 29.6399 55.89C29.6399 53.475 31.7849 51.5775 34.5149 51.5775C37.2449 51.5775 39.3899 53.475 39.3899 55.89ZM61.0349 60.2025C58.3049 60.2025 56.1599 58.305 56.1599 55.89C56.1599 53.475 58.3049 51.5775 61.0349 51.5775C63.7649 51.5775 65.9099 53.475 65.9099 55.89C65.9099 58.305 63.7649 60.2025 61.0349 60.2025Z" fill="black"/>
</g>
<defs>
<clipPath id="clip0_115_13">
<rect width="78" height="69" fill="white"/>
</clipPath>
</defs>
</svg>