<svg width="195" height="80" viewBox="0 0 195 80" fill="none" xmlns="http://www.w3.org/2000/svg">
<g clip-path="url(#clip0_106_27)">
<path d="M80 0H0V80H80V0Z" fill="#37EE5F"/>
<path fill-rule="evenodd" clip-rule="evenodd" d="M31 40C31 30.0588 39.0589 22 49 22C58.9411 22 67 30.0588 67 40C67 49.9412 58.9411 58 49 58C39.0589 58 31 49.9412 31 40ZM35 40C35 32.2681 41.268 26 49 26C56.732 26 63 32.2681 63 40C63 47.7319 56.732 54 49 54C41.268 54 35 47.7319 35 40Z" fill="white"/>
<path d="M27 22.5H15V26.5H19V53.5H15V57.5H27V53.5H23V26.5H27V22.5Z" fill="white"/>
<path d="M94 57V56.5376L94.5501 56.3527C95.681 56.0444 96.2464 55.3047 96.2464 54.1333V28.9806C96.2464 28.3025 96.1242 27.7939 95.8797 27.4548C95.6657 27.1158 95.2531 26.8846 94.6418 26.7613L94 26.6226V26.1602L101.794 23.4785L102.252 23.9409L102.665 25.3742C103.673 24.7577 104.789 24.2799 106.012 23.9409C107.265 23.6018 108.548 23.4323 109.863 23.4323C112.491 23.4323 114.569 24.4495 116.098 26.4839C117.656 28.4875 118.436 31.3695 118.436 35.1301C118.436 38.829 117.58 41.7419 115.868 43.8688C114.187 45.9957 111.803 47.0591 108.716 47.0591C106.302 47.0591 104.269 46.7047 102.619 45.9957V53.9946C102.619 55.2276 103.169 55.9982 104.269 56.3064L105.14 56.5376V57H94ZM106.516 45.7183C108.044 45.7183 109.251 44.9168 110.138 43.314C111.055 41.7111 111.513 39.0448 111.513 35.3151C111.513 31.5853 111.085 28.9806 110.229 27.5011C109.374 25.9907 108.136 25.2355 106.516 25.2355C105.385 25.2355 104.132 25.6054 102.757 26.3452V44.9785C103.918 45.4717 105.171 45.7183 106.516 45.7183Z" fill="black"/>
<path d="M120.504 46.3656V45.9032L121.192 45.7183C121.803 45.5333 122.216 45.2559 122.43 44.886C122.675 44.5161 122.797 44.0384 122.797 43.4527V28.9806C122.797 28.3025 122.675 27.8093 122.43 27.5011C122.216 27.162 121.803 26.9308 121.192 26.8075L120.504 26.6226V26.1602L128.39 23.4785L128.848 23.9409L129.261 27.9172V28.2871C129.689 27.424 130.239 26.638 130.911 25.929C131.614 25.1892 132.378 24.5882 133.204 24.1258C134.06 23.6634 134.9 23.4323 135.725 23.4323C136.887 23.4323 137.773 23.7559 138.384 24.4032C138.996 25.0505 139.301 25.8674 139.301 26.8538C139.301 27.9018 138.996 28.7186 138.384 29.3043C137.804 29.8591 137.101 30.1366 136.275 30.1366C134.992 30.1366 133.861 29.4892 132.883 28.1946L132.791 28.1022C132.485 27.6706 132.134 27.4394 131.737 27.4086C131.339 27.347 130.973 27.5319 130.636 27.9634C130.331 28.2409 130.071 28.5799 129.857 28.9806C129.674 29.3505 129.49 29.7821 129.307 30.2753V43.1753C129.307 44.4082 129.842 45.1789 130.911 45.4871L132.378 45.9032V46.3656H120.504Z" fill="black"/>
<path d="M146.242 21.028C145.203 21.028 144.317 20.7043 143.583 20.057C142.88 19.3789 142.529 18.5312 142.529 17.514C142.529 16.466 142.88 15.6183 143.583 14.971C144.317 14.3237 145.203 14 146.242 14C147.282 14 148.153 14.3237 148.856 14.971C149.559 15.6183 149.91 16.466 149.91 17.514C149.91 18.5312 149.559 19.3789 148.856 20.057C148.153 20.7043 147.282 21.028 146.242 21.028ZM140.833 46.3656V45.9032L141.475 45.7183C142.086 45.5333 142.498 45.2559 142.712 44.886C142.957 44.5161 143.079 44.0229 143.079 43.4065V28.9344C143.079 28.2871 142.957 27.8093 142.712 27.5011C142.498 27.162 142.086 26.9308 141.475 26.8075L140.833 26.6688V26.2065L149.222 23.4785L149.681 23.9409L149.543 30.5065V43.4527C149.543 44.0692 149.65 44.5624 149.864 44.9323C150.109 45.3022 150.521 45.5796 151.102 45.7645L151.561 45.9032V46.3656H140.833Z" fill="black"/>
<path d="M153.59 46.3656V45.9032L154.232 45.7183C155.302 45.41 155.837 44.6548 155.837 43.4527V28.9806C155.837 28.3025 155.73 27.8093 155.516 27.5011C155.302 27.162 154.889 26.9308 154.278 26.8075L153.59 26.6226V26.1602L161.43 23.4785L161.888 23.9409L162.255 26.7151C163.325 25.7595 164.532 24.9735 165.877 24.357C167.222 23.7405 168.551 23.4323 169.866 23.4323C171.883 23.4323 173.426 23.9871 174.496 25.0968C175.596 26.2065 176.146 27.9018 176.146 30.1828V43.4989C176.146 44.7011 176.727 45.4563 177.888 45.7645L178.301 45.9032V46.3656H167.482V45.9032L168.078 45.7183C169.147 45.3792 169.682 44.624 169.682 43.4527V28.7032C169.682 26.7305 168.704 25.7441 166.748 25.7441C165.403 25.7441 163.936 26.4222 162.347 27.7785V43.4989C162.347 44.7011 162.882 45.4563 163.951 45.7645L164.364 45.9032V46.3656H153.59Z" fill="black"/>
<path d="M188.582 47.0591C186.626 47.0591 185.097 46.5659 183.997 45.5796C182.927 44.5932 182.392 43.0211 182.392 40.8634V25.0505H179.229V24.5882L180.329 24.4032C181.277 24.1875 182.087 23.8792 182.759 23.4785C183.462 23.0778 184.15 22.5384 184.822 21.8602L188.582 17.6527H189.04L188.903 24.1258H194.037V25.0505H188.857V41.6957C188.857 42.7746 189.086 43.5914 189.544 44.1462C190.033 44.7011 190.645 44.9785 191.378 44.9785C192.02 44.9785 192.585 44.8244 193.074 44.5161C193.563 44.1771 194.053 43.7301 194.542 43.1753L195 43.6376C194.389 44.6857 193.548 45.5179 192.478 46.1344C191.409 46.7509 190.11 47.0591 188.582 47.0591Z" fill="black"/>
<path d="M120.738 70.8645C120.707 71.1604 120.683 71.4486 120.667 71.729C120.659 72.0016 120.655 72.2118 120.655 72.3598C120.655 72.5467 120.659 72.722 120.667 72.8855C120.675 73.0491 120.683 73.1931 120.691 73.3178H120.415C120.359 72.7726 120.284 72.3442 120.188 72.0327C120.092 71.7134 119.925 71.4836 119.685 71.3435C119.446 71.2033 119.075 71.1332 118.572 71.1332H117.926V77.7804C117.926 78.0919 117.954 78.3255 118.01 78.4813C118.073 78.6371 118.193 78.7422 118.369 78.7967C118.544 78.8512 118.8 78.8863 119.135 78.9019V79.1355C118.927 79.1199 118.664 79.1121 118.345 79.1121C118.026 79.1044 117.702 79.1005 117.375 79.1005C117.016 79.1005 116.677 79.1044 116.358 79.1121C116.047 79.1121 115.795 79.1199 115.604 79.1355V78.9019C115.939 78.8863 116.194 78.8512 116.37 78.7967C116.545 78.7422 116.661 78.6371 116.717 78.4813C116.781 78.3255 116.813 78.0919 116.813 77.7804V71.1332H116.166C115.672 71.1332 115.301 71.2033 115.053 71.3435C114.814 71.4836 114.646 71.7134 114.551 72.0327C114.455 72.3442 114.379 72.7726 114.323 73.3178H114.048C114.064 73.1931 114.072 73.0491 114.072 72.8855C114.08 72.722 114.084 72.5467 114.084 72.3598C114.084 72.2118 114.076 72.0016 114.06 71.729C114.052 71.4486 114.032 71.1604 114 70.8645C114.335 70.8723 114.698 70.8801 115.089 70.8879C115.488 70.8956 115.887 70.8995 116.286 70.8995C116.685 70.8995 117.048 70.8995 117.375 70.8995C117.702 70.8995 118.061 70.8995 118.452 70.8995C118.851 70.8995 119.25 70.8956 119.649 70.8879C120.048 70.8801 120.411 70.8723 120.738 70.8645Z" fill="black"/>
<path d="M124.641 70.8645V71.0981C124.37 71.1059 124.163 71.1371 124.019 71.1916C123.883 71.2383 123.792 71.3318 123.744 71.472C123.696 71.6044 123.672 71.8146 123.672 72.1028V77.8972C123.672 78.1776 123.696 78.3879 123.744 78.528C123.792 78.6682 123.883 78.7617 124.019 78.8084C124.163 78.8551 124.37 78.8863 124.641 78.9019V79.1355C124.458 79.1199 124.227 79.1121 123.947 79.1121C123.676 79.1044 123.401 79.1005 123.121 79.1005C122.81 79.1005 122.519 79.1044 122.248 79.1121C121.976 79.1121 121.757 79.1199 121.589 79.1355V78.9019C121.861 78.8863 122.064 78.8551 122.2 78.8084C122.343 78.7617 122.439 78.6682 122.487 78.528C122.535 78.3879 122.559 78.1776 122.559 77.8972V72.1028C122.559 71.8146 122.535 71.6044 122.487 71.472C122.439 71.3318 122.343 71.2383 122.2 71.1916C122.064 71.1371 121.861 71.1059 121.589 71.0981V70.8645C121.757 70.8723 121.976 70.8801 122.248 70.8879C122.519 70.8956 122.81 70.8995 123.121 70.8995C123.401 70.8995 123.676 70.8956 123.947 70.8879C124.227 70.8801 124.458 70.8723 124.641 70.8645ZM128.005 71.6355C128.005 71.6355 128.001 71.6783 127.993 71.764C127.985 71.8419 127.977 71.9237 127.969 72.0093C127.969 72.095 127.969 72.1379 127.969 72.1379L123.181 78.7617L123.217 78.2593L128.005 71.6355ZM129.884 70.8645V71.0981C129.613 71.1059 129.405 71.1371 129.261 71.1916C129.126 71.2383 129.034 71.3318 128.986 71.472C128.938 71.6044 128.914 71.8146 128.914 72.1028V77.8972C128.914 78.1776 128.938 78.3879 128.986 78.528C129.034 78.6682 129.126 78.7617 129.261 78.8084C129.405 78.8551 129.613 78.8863 129.884 78.9019V79.1355C129.716 79.1199 129.497 79.1121 129.226 79.1121C128.954 79.1044 128.663 79.1005 128.352 79.1005C128.081 79.1005 127.805 79.1044 127.526 79.1121C127.247 79.1121 127.015 79.1199 126.832 79.1355V78.9019C127.103 78.8863 127.307 78.8551 127.442 78.8084C127.586 78.7617 127.682 78.6682 127.729 78.528C127.777 78.3879 127.801 78.1776 127.801 77.8972V72.1028C127.801 71.8146 127.777 71.6044 127.729 71.472C127.682 71.3318 127.586 71.2383 127.442 71.1916C127.307 71.1371 127.103 71.1059 126.832 71.0981V70.8645C127.015 70.8723 127.247 70.8801 127.526 70.8879C127.805 70.8956 128.081 70.8995 128.352 70.8995C128.663 70.8995 128.954 70.8956 129.226 70.8879C129.497 70.8801 129.716 70.8723 129.884 70.8645Z" fill="black"/>
<path d="M138.948 70.8645V71.0981C138.677 71.1059 138.47 71.1371 138.326 71.1916C138.19 71.2383 138.099 71.3318 138.051 71.472C138.003 71.6044 137.979 71.8146 137.979 72.1028V77.8972C137.979 78.1776 138.003 78.3879 138.051 78.528C138.099 78.6682 138.19 78.7617 138.326 78.8084C138.47 78.8551 138.677 78.8863 138.948 78.9019V79.1355C138.781 79.1199 138.561 79.1121 138.29 79.1121C138.019 79.1044 137.728 79.1005 137.416 79.1005C137.145 79.1005 136.87 79.1044 136.591 79.1121C136.311 79.1121 136.08 79.1199 135.896 79.1355V78.9019C136.168 78.8863 136.371 78.8551 136.507 78.8084C136.65 78.7617 136.746 78.6682 136.794 78.528C136.842 78.3879 136.866 78.1776 136.866 77.8972V72.1028C136.866 71.8146 136.842 71.6005 136.794 71.4603C136.746 71.3201 136.65 71.2266 136.507 71.1799C136.371 71.1254 136.168 71.0981 135.896 71.0981H133.945C133.674 71.0981 133.467 71.1254 133.323 71.1799C133.187 71.2266 133.096 71.3201 133.048 71.4603C133 71.6005 132.976 71.8146 132.976 72.1028V77.8972C132.976 78.1776 133 78.3879 133.048 78.528C133.096 78.6682 133.187 78.7617 133.323 78.8084C133.467 78.8551 133.674 78.8863 133.945 78.9019V79.1355C133.762 79.1199 133.53 79.1121 133.251 79.1121C132.98 79.1044 132.705 79.1005 132.425 79.1005C132.114 79.1005 131.823 79.1044 131.552 79.1121C131.28 79.1121 131.061 79.1199 130.893 79.1355V78.9019C131.165 78.8863 131.368 78.8551 131.504 78.8084C131.647 78.7617 131.743 78.6682 131.791 78.528C131.839 78.3879 131.863 78.1776 131.863 77.8972V72.1028C131.863 71.8146 131.839 71.6044 131.791 71.472C131.743 71.3318 131.647 71.2383 131.504 71.1916C131.368 71.1371 131.165 71.1059 130.893 71.0981V70.8645C131.061 70.8723 131.28 70.8801 131.552 70.8879C131.823 70.8956 132.114 70.8995 132.425 70.8995C132.896 70.8995 133.363 70.8956 133.826 70.8879C134.289 70.8723 134.66 70.8645 134.939 70.8645C135.218 70.8645 135.585 70.8723 136.04 70.8879C136.495 70.8956 136.954 70.8995 137.416 70.8995C137.728 70.8995 138.019 70.8956 138.29 70.8879C138.561 70.8801 138.781 70.8723 138.948 70.8645Z" fill="black"/>
<path d="M143.796 70.7009C144.554 70.7009 145.216 70.8684 145.783 71.2033C146.357 71.5382 146.8 72.021 147.111 72.6519C147.431 73.2749 147.59 74.0343 147.59 74.9299C147.59 75.8022 147.427 76.5654 147.099 77.2196C146.78 77.8738 146.333 78.384 145.759 78.75C145.184 79.116 144.526 79.2991 143.784 79.2991C143.026 79.2991 142.36 79.1316 141.785 78.7967C141.219 78.4618 140.776 77.979 140.457 77.3481C140.146 76.7173 139.99 75.9579 139.99 75.0701C139.99 74.1978 140.154 73.4346 140.481 72.7804C140.808 72.1262 141.255 71.616 141.821 71.25C142.396 70.884 143.054 70.7009 143.796 70.7009ZM143.748 70.9112C143.23 70.9112 142.779 71.0864 142.396 71.4369C142.013 71.7874 141.713 72.2702 141.498 72.8855C141.291 73.5008 141.187 74.2134 141.187 75.0234C141.187 75.8489 141.303 76.5693 141.534 77.1846C141.773 77.7921 142.093 78.2632 142.491 78.5981C142.898 78.9252 143.345 79.0888 143.832 79.0888C144.351 79.0888 144.801 78.9136 145.184 78.5631C145.567 78.2126 145.863 77.7298 146.07 77.1145C146.286 76.4914 146.393 75.7788 146.393 74.9766C146.393 74.1433 146.274 73.4229 146.034 72.8154C145.803 72.2079 145.488 71.7407 145.089 71.4136C144.69 71.0787 144.243 70.9112 143.748 70.9112Z" fill="black"/>
<path d="M154.13 70.8645C154.098 71.1604 154.074 71.4486 154.058 71.729C154.05 72.0016 154.046 72.2118 154.046 72.3598C154.046 72.5467 154.05 72.722 154.058 72.8855C154.066 73.0491 154.074 73.1931 154.082 73.3178H153.807C153.751 72.7726 153.675 72.3442 153.579 72.0327C153.484 71.7134 153.316 71.4836 153.077 71.3435C152.837 71.2033 152.466 71.1332 151.964 71.1332H151.688C151.417 71.1332 151.21 71.1565 151.066 71.2033C150.93 71.2422 150.839 71.3318 150.791 71.472C150.743 71.6044 150.719 71.8146 150.719 72.1028V77.8972C150.719 78.1776 150.747 78.3879 150.803 78.528C150.866 78.6682 150.986 78.7617 151.162 78.8084C151.337 78.8551 151.593 78.8863 151.928 78.9019V79.1355C151.72 79.1199 151.457 79.1121 151.138 79.1121C150.819 79.1044 150.495 79.1005 150.168 79.1005C149.857 79.1005 149.566 79.1044 149.295 79.1121C149.023 79.1121 148.804 79.1199 148.636 79.1355V78.9019C148.908 78.8863 149.111 78.8551 149.247 78.8084C149.39 78.7617 149.486 78.6682 149.534 78.528C149.582 78.3879 149.606 78.1776 149.606 77.8972V72.1028C149.606 71.8146 149.582 71.6044 149.534 71.472C149.486 71.3318 149.39 71.2383 149.247 71.1916C149.111 71.1371 148.908 71.1059 148.636 71.0981V70.8645C148.932 70.8723 149.243 70.8801 149.57 70.8879C149.897 70.8879 150.22 70.8917 150.539 70.8995C150.858 70.8995 151.154 70.8995 151.425 70.8995C151.704 70.8995 151.932 70.8995 152.107 70.8995C152.402 70.8995 152.738 70.8995 153.113 70.8995C153.496 70.8917 153.835 70.8801 154.13 70.8645Z" fill="black"/>
<path d="M154.96 70.8645C155.127 70.8723 155.347 70.8801 155.618 70.8879C155.889 70.8956 156.157 70.8995 156.42 70.8995C156.795 70.8995 157.154 70.8956 157.497 70.8879C157.84 70.8801 158.084 70.8762 158.227 70.8762C159.193 70.8762 159.915 71.0903 160.394 71.5187C160.872 71.947 161.112 72.5 161.112 73.1776C161.112 73.4579 161.064 73.7539 160.968 74.0654C160.872 74.3692 160.705 74.6534 160.465 74.9182C160.234 75.1752 159.915 75.3855 159.508 75.5491C159.101 75.7126 158.586 75.7944 157.964 75.7944H156.815V75.5607H157.844C158.411 75.5607 158.842 75.4556 159.137 75.2453C159.44 75.035 159.644 74.7586 159.747 74.4159C159.859 74.0732 159.915 73.7033 159.915 73.3061C159.915 72.5662 159.763 72.0132 159.46 71.6472C159.165 71.2812 158.654 71.0981 157.928 71.0981C157.561 71.0981 157.322 71.1643 157.21 71.2967C157.098 71.4291 157.042 71.6978 157.042 72.1028V77.8972C157.042 78.1776 157.07 78.3879 157.126 78.528C157.19 78.6682 157.31 78.7617 157.485 78.8084C157.661 78.8551 157.916 78.8863 158.251 78.9019V79.1355C158.044 79.1199 157.78 79.1121 157.461 79.1121C157.142 79.1044 156.819 79.1005 156.492 79.1005C156.181 79.1005 155.889 79.1044 155.618 79.1121C155.347 79.1121 155.127 79.1199 154.96 79.1355V78.9019C155.231 78.8863 155.434 78.8551 155.57 78.8084C155.714 78.7617 155.809 78.6682 155.857 78.528C155.905 78.3879 155.929 78.1776 155.929 77.8972V72.1028C155.929 71.8146 155.905 71.6044 155.857 71.472C155.809 71.3318 155.714 71.2383 155.57 71.1916C155.434 71.1371 155.231 71.1059 154.96 71.0981V70.8645Z" fill="black"/>
<path d="M164.833 70.8061L167.754 78.1542C167.873 78.4502 168.009 78.6488 168.161 78.75C168.312 78.8435 168.452 78.8941 168.58 78.9019V79.1355C168.42 79.1199 168.225 79.1121 167.993 79.1121C167.762 79.1044 167.53 79.1005 167.299 79.1005C166.988 79.1005 166.697 79.1044 166.425 79.1121C166.154 79.1121 165.934 79.1199 165.767 79.1355V78.9019C166.174 78.8863 166.433 78.8201 166.545 78.7033C166.657 78.5787 166.633 78.3178 166.473 77.9206L164.247 72.1145L164.438 71.9626L162.356 77.243C162.228 77.5545 162.152 77.8193 162.128 78.0374C162.104 78.2477 162.124 78.4151 162.188 78.5397C162.26 78.6643 162.376 78.7539 162.535 78.8084C162.703 78.8629 162.91 78.8941 163.158 78.9019V79.1355C162.934 79.1199 162.699 79.1121 162.452 79.1121C162.212 79.1044 161.989 79.1005 161.781 79.1005C161.582 79.1005 161.41 79.1044 161.267 79.1121C161.131 79.1121 161.003 79.1199 160.884 79.1355V78.9019C161.043 78.8629 161.207 78.7734 161.374 78.6332C161.542 78.4852 161.694 78.236 161.829 77.8855L164.642 70.8061C164.674 70.8061 164.706 70.8061 164.738 70.8061C164.77 70.8061 164.801 70.8061 164.833 70.8061ZM166.294 75.771V76.0047H162.727L162.847 75.771H166.294Z" fill="black"/>
<path d="M173.394 71.6355C174.344 71.6355 175.174 71.764 175.884 72.021C176.602 72.278 177.157 72.6519 177.548 73.1425C177.947 73.6254 178.146 74.2212 178.146 74.9299C178.146 75.6153 177.943 76.215 177.536 76.729C177.137 77.243 176.578 77.6441 175.86 77.9322C175.142 78.2204 174.316 78.3645 173.383 78.3645C172.433 78.3645 171.599 78.2321 170.881 77.9673C170.171 77.7025 169.616 77.317 169.217 76.8107C168.826 76.2967 168.631 75.6776 168.631 74.9533C168.631 74.2913 168.834 73.7111 169.241 73.2126C169.648 72.7142 170.207 72.3287 170.917 72.0561C171.635 71.7757 172.461 71.6355 173.394 71.6355ZM173.347 71.8458C172.636 71.8458 172.018 71.9782 171.491 72.243C170.965 72.5 170.554 72.8583 170.259 73.3178C169.971 73.7773 169.828 74.3069 169.828 74.9065C169.828 75.5685 169.983 76.1449 170.295 76.6355C170.614 77.1184 171.045 77.4922 171.587 77.757C172.138 78.0218 172.752 78.1542 173.43 78.1542C174.141 78.1542 174.759 78.0179 175.286 77.7453C175.812 77.4727 176.219 77.0989 176.506 76.6238C176.802 76.141 176.949 75.5919 176.949 74.9766C176.949 74.3302 176.79 73.7734 176.47 73.3061C176.159 72.8388 175.732 72.4805 175.19 72.2313C174.647 71.9743 174.033 71.8458 173.347 71.8458ZM174.926 70V70.2336C174.655 70.2414 174.448 70.2726 174.304 70.3271C174.168 70.3738 174.077 70.4673 174.029 70.6075C173.981 70.7399 173.957 70.9502 173.957 71.2383V78.7617C173.957 79.0498 173.981 79.264 174.029 79.4042C174.077 79.5444 174.168 79.634 174.304 79.6729C174.448 79.7196 174.655 79.7508 174.926 79.7664V80C174.743 79.9844 174.512 79.9727 174.232 79.965C173.961 79.965 173.686 79.965 173.406 79.965C173.095 79.965 172.804 79.965 172.533 79.965C172.261 79.9727 172.042 79.9844 171.874 80V79.7664C172.146 79.7508 172.349 79.7196 172.485 79.6729C172.628 79.6262 172.724 79.5327 172.772 79.3925C172.82 79.2523 172.844 79.0421 172.844 78.7617V71.2383C172.844 70.9502 172.82 70.736 172.772 70.5958C172.724 70.4556 172.628 70.3621 172.485 70.3154C172.349 70.2687 172.146 70.2414 171.874 70.2336V70C172.042 70.0078 172.261 70.0156 172.533 70.0234C172.804 70.0312 173.095 70.035 173.406 70.035C173.686 70.035 173.961 70.0312 174.232 70.0234C174.512 70.0156 174.743 70.0078 174.926 70Z" fill="black"/>
<path d="M181.938 70.8645V71.0981C181.667 71.1059 181.459 71.1371 181.315 71.1916C181.18 71.2383 181.088 71.3318 181.04 71.472C180.992 71.6044 180.968 71.8146 180.968 72.1028V77.8972C180.968 78.1776 180.992 78.3879 181.04 78.528C181.088 78.6682 181.18 78.7617 181.315 78.8084C181.459 78.8551 181.667 78.8863 181.938 78.9019V79.1355C181.754 79.1199 181.523 79.1121 181.244 79.1121C180.972 79.1044 180.697 79.1005 180.418 79.1005C180.107 79.1005 179.815 79.1044 179.544 79.1121C179.273 79.1121 179.053 79.1199 178.886 79.1355V78.9019C179.157 78.8863 179.361 78.8551 179.496 78.8084C179.64 78.7617 179.736 78.6682 179.783 78.528C179.831 78.3879 179.855 78.1776 179.855 77.8972V72.1028C179.855 71.8146 179.831 71.6044 179.783 71.472C179.736 71.3318 179.64 71.2383 179.496 71.1916C179.361 71.1371 179.157 71.1059 178.886 71.0981V70.8645C179.053 70.8723 179.273 70.8801 179.544 70.8879C179.815 70.8956 180.107 70.8995 180.418 70.8995C180.697 70.8995 180.972 70.8956 181.244 70.8879C181.523 70.8801 181.754 70.8723 181.938 70.8645ZM185.301 71.6355C185.301 71.6355 185.297 71.6783 185.289 71.764C185.281 71.8419 185.273 71.9237 185.265 72.0093C185.265 72.095 185.265 72.1379 185.265 72.1379L180.478 78.7617L180.514 78.2593L185.301 71.6355ZM187.18 70.8645V71.0981C186.909 71.1059 186.701 71.1371 186.558 71.1916C186.422 71.2383 186.33 71.3318 186.283 71.472C186.235 71.6044 186.211 71.8146 186.211 72.1028V77.8972C186.211 78.1776 186.235 78.3879 186.283 78.528C186.33 78.6682 186.422 78.7617 186.558 78.8084C186.701 78.8551 186.909 78.8863 187.18 78.9019V79.1355C187.013 79.1199 186.793 79.1121 186.522 79.1121C186.251 79.1044 185.959 79.1005 185.648 79.1005C185.377 79.1005 185.102 79.1044 184.822 79.1121C184.543 79.1121 184.312 79.1199 184.128 79.1355V78.9019C184.399 78.8863 184.603 78.8551 184.739 78.8084C184.882 78.7617 184.978 78.6682 185.026 78.528C185.074 78.3879 185.098 78.1776 185.098 77.8972V72.1028C185.098 71.8146 185.074 71.6044 185.026 71.472C184.978 71.3318 184.882 71.2383 184.739 71.1916C184.603 71.1371 184.399 71.1059 184.128 71.0981V70.8645C184.312 70.8723 184.543 70.8801 184.822 70.8879C185.102 70.8956 185.377 70.8995 185.648 70.8995C185.959 70.8995 186.251 70.8956 186.522 70.8879C186.793 70.8801 187.013 70.8723 187.18 70.8645Z" fill="black"/>
<path d="M195 70.8645V71.0981C194.729 71.1059 194.521 71.1371 194.378 71.1916C194.242 71.2383 194.15 71.3318 194.102 71.472C194.054 71.6044 194.031 71.8146 194.031 72.1028V77.8972C194.031 78.1776 194.054 78.3879 194.102 78.528C194.15 78.6682 194.242 78.7617 194.378 78.8084C194.521 78.8551 194.729 78.8863 195 78.9019V79.1355C194.832 79.1199 194.613 79.1121 194.342 79.1121C194.07 79.1044 193.779 79.1005 193.468 79.1005C193.197 79.1005 192.921 79.1044 192.642 79.1121C192.363 79.1121 192.131 79.1199 191.948 79.1355V78.9019C192.219 78.8863 192.423 78.8551 192.558 78.8084C192.702 78.7617 192.798 78.6682 192.846 78.528C192.893 78.3879 192.917 78.1776 192.917 77.8972V72.1028C192.917 71.6978 192.862 71.4291 192.75 71.2967C192.638 71.1643 192.399 71.0981 192.032 71.0981C191.306 71.0981 190.791 71.2656 190.488 71.6005C190.192 71.9276 190.045 72.3793 190.045 72.9556C190.045 73.3372 190.097 73.6838 190.2 73.9953C190.312 74.2991 190.516 74.5405 190.811 74.7196C191.114 74.891 191.549 74.9766 192.116 74.9766H193.145C193.145 74.9766 193.145 75.0156 193.145 75.0935C193.145 75.1713 193.145 75.2103 193.145 75.2103H191.996C191.373 75.2103 190.859 75.1402 190.452 75C190.045 74.8598 189.722 74.6768 189.482 74.4509C189.251 74.2251 189.087 73.9759 188.992 73.7033C188.896 73.4307 188.848 73.1659 188.848 72.9089C188.848 72.5273 188.952 72.1846 189.159 71.8808C189.375 71.5693 189.698 71.324 190.129 71.1449C190.56 70.9657 191.094 70.8762 191.732 70.8762C191.876 70.8762 192.119 70.8801 192.463 70.8879C192.806 70.8956 193.165 70.8995 193.54 70.8995C193.803 70.8995 194.07 70.8956 194.342 70.8879C194.613 70.8801 194.832 70.8723 195 70.8645ZM193.037 75.0117L193.013 75.2103H191.721C191.409 75.2103 191.17 75.2804 191.002 75.4206C190.835 75.5607 190.707 75.7555 190.619 76.0047C190.532 76.2461 190.448 76.5343 190.368 76.8692L190.105 78.0374C189.993 78.5358 189.825 78.8707 189.602 79.0421C189.387 79.2134 189.127 79.2991 188.824 79.2991C188.505 79.2991 188.254 79.2368 188.07 79.1121C187.886 78.9797 187.711 78.7928 187.543 78.5514L187.723 78.4229C187.835 78.5553 187.934 78.6604 188.022 78.7383C188.11 78.8162 188.222 78.859 188.357 78.8668C188.533 78.8746 188.656 78.8045 188.728 78.6565C188.808 78.5008 188.888 78.2516 188.968 77.9089L189.243 76.7173C189.355 76.2344 189.534 75.8801 189.782 75.6542C190.037 75.4206 190.432 75.2609 190.966 75.1752C191.118 75.1519 191.27 75.1324 191.421 75.1168C191.573 75.1012 191.772 75.0857 192.02 75.0701C192.275 75.0467 192.614 75.0273 193.037 75.0117Z" fill="black"/>
</g>
<defs>
<clipPath id="clip0_106_27">
<rect width="195" height="80" fill="white"/>
</clipPath>
</defs>
</svg>
