<svg width="282" height="122" viewBox="0 0 282 122" fill="none" xmlns="http://www.w3.org/2000/svg">
<g clip-path="url(#clip0_115_115)">
<path d="M115.692 0H0V122H115.692V0Z" fill="#37EE5F"/>
<path fill-rule="evenodd" clip-rule="evenodd" d="M44.8307 61C44.8307 45.8397 56.4852 33.55 70.8615 33.55C85.2379 33.55 96.8923 45.8397 96.8923 61C96.8923 76.1604 85.2379 88.4501 70.8615 88.4501C56.4852 88.4501 44.8307 76.1604 44.8307 61ZM50.6154 61C50.6154 49.2089 59.6799 39.65 70.8615 39.65C82.0432 39.65 91.1077 49.2089 91.1077 61C91.1077 72.7912 82.0432 82.3501 70.8615 82.3501C59.6799 82.3501 50.6154 72.7912 50.6154 61Z" fill="white"/>
<path d="M39.0462 34.3125H21.6923V40.4125H27.4769V81.5875H21.6923V87.6875H39.0462V81.5875H33.2616V40.4125H39.0462V34.3125Z" fill="white"/>
<path d="M135.938 86.925V86.2198L136.734 85.9379C138.369 85.4677 139.187 84.3397 139.187 82.5533V44.1954C139.187 43.1613 139.01 42.3857 138.657 41.8686C138.347 41.3516 137.751 40.999 136.867 40.811L135.938 40.5995V39.8943L147.21 35.8047L147.872 36.5099L148.469 38.6957C149.927 37.7555 151.541 37.0268 153.31 36.5099C155.122 35.9927 156.977 35.7343 158.879 35.7343C162.679 35.7343 165.684 37.2855 167.896 40.3879C170.149 43.4434 171.277 47.8385 171.277 53.5734C171.277 59.2142 170.039 63.6564 167.563 66.8999C165.132 70.1434 161.684 71.7651 157.22 71.7651C153.729 71.7651 150.789 71.2247 148.403 70.1434V82.3418C148.403 84.2221 149.198 85.3973 150.789 85.8673L152.049 86.2198V86.925H135.938ZM154.039 69.7204C156.248 69.7204 157.994 68.4981 159.277 66.0538C160.603 63.6094 161.265 59.5433 161.265 53.8555C161.265 48.1676 160.646 44.1954 159.408 41.9392C158.172 39.6358 156.381 38.4841 154.039 38.4841C152.403 38.4841 150.591 39.0482 148.602 40.1764V68.5922C150.281 69.3443 152.093 69.7204 154.039 69.7204Z" fill="white"/>
<path d="M174.267 70.7075V70.0024L175.262 69.7204C176.146 69.4383 176.743 69.0152 177.053 68.4511C177.407 67.8871 177.583 67.1586 177.583 66.2654V44.1954C177.583 43.1613 177.407 42.4092 177.053 41.9392C176.743 41.422 176.146 41.0695 175.262 40.8814L174.267 40.5995V39.8943L185.672 35.8047L186.334 36.5099L186.931 42.5737V43.1378C187.55 41.8216 188.346 40.6229 189.317 39.5417C190.334 38.4135 191.439 37.497 192.633 36.7918C193.871 36.0867 195.086 35.7343 196.279 35.7343C197.96 35.7343 199.241 36.2277 200.125 37.2149C201.01 38.202 201.451 39.4478 201.451 40.952C201.451 42.5502 201.01 43.7959 200.125 44.6891C199.286 45.5351 198.269 45.9583 197.075 45.9583C195.219 45.9583 193.584 44.971 192.169 42.9968L192.036 42.8558C191.594 42.1977 191.086 41.8451 190.512 41.7981C189.936 41.7042 189.407 41.9861 188.92 42.6442C188.479 43.0674 188.103 43.5843 187.793 44.1954C187.529 44.7595 187.262 45.4177 186.998 46.1698V65.8423C186.998 67.7225 187.772 68.8978 189.317 69.3678L191.439 70.0024V70.7075H174.267Z" fill="white"/>
<path d="M211.488 32.0677C209.986 32.0677 208.705 31.574 207.643 30.5869C206.626 29.5528 206.119 28.2601 206.119 26.7088C206.119 25.1106 206.626 23.8179 207.643 22.8308C208.705 21.8436 209.986 21.35 211.488 21.35C212.992 21.35 214.252 21.8436 215.269 22.8308C216.285 23.8179 216.793 25.1106 216.793 26.7088C216.793 28.2601 216.285 29.5528 215.269 30.5869C214.252 31.574 212.992 32.0677 211.488 32.0677ZM203.666 70.7075V70.0024L204.595 69.7204C205.478 69.4383 206.074 69.0152 206.383 68.4511C206.738 67.887 206.914 67.1349 206.914 66.1949V44.1249C206.914 43.1378 206.738 42.4092 206.383 41.9392C206.074 41.422 205.478 41.0694 204.595 40.8814L203.666 40.6699V39.9649L215.798 35.8047L216.462 36.5098L216.262 46.5224V66.2653C216.262 67.2055 216.417 67.9576 216.726 68.5217C217.081 69.0858 217.676 69.5089 218.517 69.7908L219.18 70.0024V70.7075H203.666Z" fill="white"/>
<path d="M222.115 70.7075V70.0024L223.043 69.7204C224.591 69.2502 225.364 68.0986 225.364 66.2654V44.1954C225.364 43.1613 225.21 42.4092 224.9 41.9392C224.591 41.422 223.993 41.0695 223.11 40.8814L222.115 40.5995V39.8943L233.453 35.8047L234.115 36.5099L234.646 40.7405C236.193 39.2832 237.939 38.0846 239.884 37.1444C241.829 36.2043 243.751 35.7343 245.652 35.7343C248.569 35.7343 250.801 36.5803 252.348 38.2726C253.939 39.9649 254.734 42.5502 254.734 46.0288V66.3358C254.734 68.1692 255.574 69.3209 257.253 69.7909L257.851 70.0024V70.7075H242.205V70.0024L243.067 69.7204C244.613 69.2033 245.386 68.0516 245.386 66.2654V43.7724C245.386 40.764 243.972 39.2597 241.143 39.2597C239.198 39.2597 237.077 40.2938 234.779 42.3622V66.3358C234.779 68.1692 235.552 69.3209 237.098 69.7909L237.696 70.0024V70.7075H222.115Z" fill="white"/>
<path d="M272.719 71.7652C269.89 71.7652 267.679 71.013 266.088 69.5089C264.541 68.0047 263.767 65.6072 263.767 62.3167V38.2021H259.193V37.497L260.784 37.2149C262.154 36.886 263.326 36.4158 264.298 35.8048C265.314 35.1937 266.309 34.3711 267.281 33.3368L272.719 26.9204H273.381L273.183 36.7919H280.607V38.2021H273.116V63.586C273.116 65.2313 273.447 66.4769 274.11 67.323C274.817 68.1692 275.702 68.5923 276.762 68.5923C277.691 68.5923 278.508 68.3573 279.215 67.8871C279.922 67.3701 280.631 66.6884 281.338 65.8424L282 66.5474C281.116 68.1457 279.9 69.4148 278.353 70.355C276.807 71.2952 274.928 71.7652 272.719 71.7652Z" fill="white"/>
<path d="M174.606 108.068C174.561 108.52 174.526 108.959 174.503 109.387C174.492 109.802 174.486 110.123 174.486 110.349C174.486 110.634 174.492 110.901 174.503 111.15C174.515 111.4 174.526 111.619 174.538 111.81H174.139C174.058 110.978 173.949 110.325 173.81 109.85C173.672 109.363 173.43 109.012 173.083 108.799C172.737 108.585 172.201 108.478 171.473 108.478H170.539V118.615C170.539 119.09 170.58 119.446 170.661 119.684C170.752 119.922 170.925 120.082 171.18 120.165C171.433 120.248 171.803 120.302 172.288 120.325V120.682C171.987 120.658 171.606 120.646 171.145 120.646C170.684 120.634 170.215 120.628 169.742 120.628C169.223 120.628 168.733 120.634 168.272 120.646C167.822 120.646 167.457 120.658 167.181 120.682V120.325C167.666 120.302 168.034 120.248 168.289 120.165C168.542 120.082 168.71 119.922 168.791 119.684C168.883 119.446 168.93 119.09 168.93 118.615V108.478H167.994C167.28 108.478 166.743 108.585 166.384 108.799C166.039 109.012 165.796 109.363 165.658 109.85C165.52 110.325 165.41 110.978 165.329 111.81H164.931C164.954 111.619 164.966 111.4 164.966 111.15C164.977 110.901 164.983 110.634 164.983 110.349C164.983 110.123 164.971 109.802 164.948 109.387C164.937 108.959 164.908 108.52 164.862 108.068C165.346 108.08 165.871 108.092 166.436 108.104C167.013 108.116 167.59 108.122 168.167 108.122C168.744 108.122 169.269 108.122 169.742 108.122C170.215 108.122 170.734 108.122 171.3 108.122C171.877 108.122 172.454 108.116 173.031 108.104C173.608 108.092 174.133 108.08 174.606 108.068Z" fill="white"/>
<path d="M180.25 108.068V108.425C179.858 108.436 179.559 108.484 179.351 108.567C179.154 108.638 179.022 108.781 178.953 108.995C178.883 109.197 178.849 109.517 178.849 109.957V118.793C178.849 119.221 178.883 119.542 178.953 119.755C179.022 119.969 179.154 120.112 179.351 120.183C179.559 120.254 179.858 120.302 180.25 120.325V120.682C179.985 120.658 179.651 120.646 179.246 120.646C178.855 120.634 178.457 120.628 178.052 120.628C177.602 120.628 177.181 120.634 176.789 120.646C176.396 120.646 176.079 120.658 175.836 120.682V120.325C176.23 120.302 176.523 120.254 176.72 120.183C176.927 120.112 177.066 119.969 177.135 119.755C177.204 119.542 177.239 119.221 177.239 118.793V109.957C177.239 109.517 177.204 109.197 177.135 108.995C177.066 108.781 176.927 108.638 176.72 108.567C176.523 108.484 176.23 108.436 175.836 108.425V108.068C176.079 108.08 176.396 108.092 176.789 108.104C177.181 108.116 177.602 108.122 178.052 108.122C178.457 108.122 178.855 108.116 179.246 108.104C179.651 108.092 179.985 108.08 180.25 108.068ZM185.115 109.244C185.115 109.244 185.109 109.309 185.098 109.44C185.086 109.559 185.074 109.684 185.063 109.814C185.063 109.945 185.063 110.01 185.063 110.01L178.139 120.112L178.191 119.345L185.115 109.244ZM187.832 108.068V108.425C187.44 108.436 187.14 108.484 186.931 108.567C186.736 108.638 186.603 108.781 186.534 108.995C186.464 109.197 186.43 109.517 186.43 109.957V118.793C186.43 119.221 186.464 119.542 186.534 119.755C186.603 119.969 186.736 120.112 186.931 120.183C187.14 120.254 187.44 120.302 187.832 120.325V120.682C187.589 120.658 187.273 120.646 186.881 120.646C186.487 120.634 186.067 120.628 185.617 120.628C185.225 120.628 184.826 120.634 184.422 120.646C184.019 120.646 183.683 120.658 183.419 120.682V120.325C183.811 120.302 184.106 120.254 184.301 120.183C184.509 120.112 184.648 119.969 184.716 119.755C184.785 119.542 184.82 119.221 184.82 118.793V109.957C184.82 109.517 184.785 109.197 184.716 108.995C184.648 108.781 184.509 108.638 184.301 108.567C184.106 108.484 183.811 108.436 183.419 108.425V108.068C183.683 108.08 184.019 108.092 184.422 108.104C184.826 108.116 185.225 108.122 185.617 108.122C186.067 108.122 186.487 108.116 186.881 108.104C187.273 108.092 187.589 108.08 187.832 108.068Z" fill="white"/>
<path d="M200.94 108.068V108.425C200.548 108.436 200.249 108.484 200.041 108.567C199.844 108.638 199.712 108.781 199.643 108.995C199.574 109.197 199.539 109.517 199.539 109.957V118.793C199.539 119.221 199.574 119.542 199.643 119.755C199.712 119.969 199.844 120.112 200.041 120.183C200.249 120.254 200.548 120.302 200.94 120.325V120.682C200.699 120.658 200.38 120.646 199.989 120.646C199.597 120.634 199.176 120.628 198.725 120.628C198.333 120.628 197.935 120.634 197.532 120.646C197.127 120.646 196.793 120.658 196.526 120.682V120.325C196.92 120.302 197.213 120.254 197.41 120.183C197.617 120.112 197.756 119.969 197.825 119.755C197.895 119.542 197.929 119.221 197.929 118.793V109.957C197.929 109.517 197.895 109.191 197.825 108.977C197.756 108.763 197.617 108.621 197.41 108.549C197.213 108.466 196.92 108.425 196.526 108.425H193.705C193.313 108.425 193.014 108.466 192.806 108.549C192.609 108.621 192.477 108.763 192.408 108.977C192.338 109.191 192.304 109.517 192.304 109.957V118.793C192.304 119.221 192.338 119.542 192.408 119.755C192.477 119.969 192.609 120.112 192.806 120.183C193.014 120.254 193.313 120.302 193.705 120.325V120.682C193.44 120.658 193.105 120.646 192.701 120.646C192.31 120.634 191.912 120.628 191.507 120.628C191.057 120.628 190.636 120.634 190.244 120.646C189.851 120.646 189.534 120.658 189.291 120.682V120.325C189.685 120.302 189.978 120.254 190.175 120.183C190.382 120.112 190.521 119.969 190.59 119.755C190.659 119.542 190.694 119.221 190.694 118.793V109.957C190.694 109.517 190.659 109.197 190.59 108.995C190.521 108.781 190.382 108.638 190.175 108.567C189.978 108.484 189.685 108.436 189.291 108.425V108.068C189.534 108.08 189.851 108.092 190.244 108.104C190.636 108.116 191.057 108.122 191.507 108.122C192.188 108.122 192.863 108.116 193.533 108.104C194.203 108.08 194.739 108.068 195.143 108.068C195.546 108.068 196.077 108.08 196.735 108.104C197.393 108.116 198.057 108.122 198.725 108.122C199.176 108.122 199.597 108.116 199.989 108.104C200.38 108.092 200.699 108.08 200.94 108.068Z" fill="white"/>
<path d="M207.951 107.819C209.047 107.819 210.005 108.074 210.825 108.585C211.655 109.096 212.295 109.832 212.745 110.794C213.208 111.744 213.438 112.902 213.438 114.268C213.438 115.598 213.202 116.762 212.728 117.76C212.266 118.758 211.62 119.536 210.79 120.094C209.958 120.652 209.007 120.931 207.934 120.931C206.838 120.931 205.874 120.676 205.043 120.165C204.224 119.654 203.584 118.918 203.122 117.956C202.673 116.994 202.447 115.836 202.447 114.482C202.447 113.152 202.684 111.988 203.157 110.99C203.63 109.992 204.276 109.214 205.095 108.656C205.926 108.098 206.878 107.819 207.951 107.819ZM207.882 108.14C207.133 108.14 206.48 108.407 205.926 108.941C205.373 109.476 204.939 110.212 204.628 111.15C204.328 112.089 204.178 113.175 204.178 114.411C204.178 115.67 204.346 116.768 204.68 117.706C205.026 118.633 205.488 119.351 206.064 119.862C206.652 120.361 207.299 120.61 208.003 120.61C208.754 120.61 209.404 120.343 209.958 119.809C210.512 119.274 210.94 118.538 211.24 117.6C211.552 116.649 211.707 115.563 211.707 114.339C211.707 113.069 211.535 111.97 211.188 111.043C210.854 110.117 210.398 109.405 209.821 108.906C209.244 108.395 208.598 108.14 207.882 108.14Z" fill="white"/>
<path d="M222.896 108.068C222.849 108.52 222.815 108.959 222.792 109.387C222.78 109.802 222.774 110.123 222.774 110.349C222.774 110.634 222.78 110.901 222.792 111.15C222.803 111.4 222.815 111.619 222.826 111.81H222.429C222.348 110.978 222.238 110.325 222.099 109.85C221.962 109.363 221.719 109.012 221.373 108.799C221.026 108.585 220.489 108.478 219.763 108.478H219.364C218.972 108.478 218.673 108.514 218.465 108.585C218.268 108.644 218.136 108.781 218.067 108.995C217.998 109.197 217.963 109.517 217.963 109.957V118.793C217.963 119.221 218.003 119.542 218.084 119.755C218.175 119.969 218.349 120.112 218.604 120.183C218.857 120.254 219.227 120.302 219.711 120.325V120.682C219.41 120.658 219.03 120.646 218.569 120.646C218.108 120.634 217.639 120.628 217.166 120.628C216.716 120.628 216.295 120.634 215.904 120.646C215.51 120.646 215.194 120.658 214.951 120.682V120.325C215.344 120.302 215.637 120.254 215.834 120.183C216.041 120.112 216.18 119.969 216.249 119.755C216.319 119.542 216.353 119.221 216.353 118.793V109.957C216.353 109.517 216.319 109.197 216.249 108.995C216.18 108.781 216.041 108.638 215.834 108.567C215.637 108.484 215.344 108.436 214.951 108.425V108.068C215.379 108.08 215.828 108.092 216.301 108.104C216.774 108.104 217.241 108.11 217.703 108.122C218.164 108.122 218.592 108.122 218.984 108.122C219.387 108.122 219.717 108.122 219.97 108.122C220.397 108.122 220.883 108.122 221.425 108.122C221.979 108.11 222.469 108.092 222.896 108.068Z" fill="white"/>
<path d="M224.096 108.068C224.337 108.08 224.656 108.092 225.048 108.104C225.439 108.116 225.827 108.122 226.207 108.122C226.75 108.122 227.269 108.116 227.765 108.104C228.261 108.092 228.614 108.086 228.821 108.086C230.218 108.086 231.262 108.413 231.954 109.066C232.646 109.719 232.993 110.562 232.993 111.596C232.993 112.023 232.923 112.475 232.784 112.95C232.646 113.413 232.404 113.846 232.057 114.25C231.723 114.642 231.262 114.963 230.673 115.212C230.084 115.462 229.34 115.586 228.44 115.586H226.779V115.23H228.267C229.087 115.23 229.71 115.07 230.137 114.749C230.575 114.428 230.87 114.007 231.019 113.484C231.181 112.962 231.262 112.398 231.262 111.792C231.262 110.663 231.042 109.82 230.604 109.262C230.177 108.704 229.438 108.425 228.388 108.425C227.857 108.425 227.512 108.526 227.35 108.727C227.188 108.929 227.107 109.339 227.107 109.957V118.793C227.107 119.221 227.147 119.542 227.228 119.755C227.321 119.969 227.494 120.112 227.747 120.183C228.002 120.254 228.371 120.302 228.855 120.325V120.682C228.556 120.658 228.174 120.646 227.713 120.646C227.251 120.634 226.784 120.628 226.311 120.628C225.862 120.628 225.439 120.634 225.048 120.646C224.656 120.646 224.337 120.658 224.096 120.682V120.325C224.488 120.302 224.781 120.254 224.978 120.183C225.186 120.112 225.324 119.969 225.393 119.755C225.463 119.542 225.497 119.221 225.497 118.793V109.957C225.497 109.517 225.463 109.197 225.393 108.995C225.324 108.781 225.186 108.638 224.978 108.567C224.781 108.484 224.488 108.436 224.096 108.425V108.068Z" fill="white"/>
<path d="M238.374 107.979L242.598 119.185C242.77 119.636 242.967 119.939 243.187 120.094C243.405 120.236 243.608 120.313 243.793 120.325V120.682C243.561 120.658 243.279 120.646 242.944 120.646C242.61 120.634 242.274 120.628 241.94 120.628C241.49 120.628 241.07 120.634 240.676 120.646C240.284 120.646 239.966 120.658 239.725 120.682V120.325C240.313 120.302 240.688 120.201 240.85 120.022C241.012 119.832 240.977 119.435 240.746 118.829L237.526 109.975L237.803 109.743L234.792 117.796C234.607 118.271 234.497 118.674 234.462 119.007C234.427 119.328 234.456 119.583 234.549 119.773C234.653 119.963 234.821 120.1 235.051 120.183C235.294 120.266 235.593 120.313 235.952 120.325V120.682C235.628 120.658 235.288 120.646 234.931 120.646C234.584 120.634 234.261 120.628 233.96 120.628C233.673 120.628 233.424 120.634 233.217 120.646C233.02 120.646 232.835 120.658 232.663 120.682V120.325C232.893 120.266 233.13 120.129 233.372 119.916C233.615 119.69 233.834 119.31 234.03 118.775L238.098 107.979C238.144 107.979 238.19 107.979 238.237 107.979C238.283 107.979 238.328 107.979 238.374 107.979ZM240.487 115.551V115.907H235.328L235.502 115.551H240.487Z" fill="white"/>
<path d="M250.754 109.244C252.128 109.244 253.329 109.44 254.355 109.832C255.394 110.224 256.196 110.794 256.762 111.542C257.339 112.279 257.626 113.187 257.626 114.268C257.626 115.313 257.333 116.228 256.744 117.012C256.167 117.796 255.359 118.407 254.321 118.847C253.282 119.286 252.088 119.506 250.738 119.506C249.365 119.506 248.159 119.304 247.12 118.9C246.093 118.496 245.291 117.908 244.714 117.136C244.148 116.352 243.866 115.408 243.866 114.304C243.866 113.294 244.16 112.409 244.748 111.649C245.337 110.889 246.145 110.301 247.172 109.886C248.211 109.458 249.405 109.244 250.754 109.244ZM250.686 109.565C249.658 109.565 248.764 109.767 248.002 110.171C247.242 110.562 246.647 111.109 246.221 111.81C245.804 112.51 245.597 113.318 245.597 114.232C245.597 115.242 245.822 116.121 246.273 116.869C246.734 117.606 247.357 118.176 248.141 118.579C248.938 118.983 249.826 119.185 250.806 119.185C251.835 119.185 252.728 118.977 253.49 118.562C254.251 118.146 254.84 117.576 255.255 116.851C255.683 116.115 255.895 115.278 255.895 114.339C255.895 113.354 255.666 112.504 255.203 111.792C254.753 111.079 254.135 110.533 253.352 110.153C252.566 109.761 251.678 109.565 250.686 109.565ZM252.97 106.75V107.106C252.578 107.118 252.279 107.166 252.07 107.249C251.874 107.32 251.742 107.463 251.673 107.676C251.603 107.878 251.569 108.199 251.569 108.638V120.112C251.569 120.551 251.603 120.878 251.673 121.091C251.742 121.305 251.874 121.442 252.07 121.501C252.279 121.572 252.578 121.62 252.97 121.644V122C252.705 121.976 252.371 121.958 251.966 121.947C251.574 121.947 251.177 121.947 250.772 121.947C250.322 121.947 249.901 121.947 249.509 121.947C249.116 121.958 248.799 121.976 248.556 122V121.644C248.95 121.62 249.243 121.572 249.44 121.501C249.647 121.43 249.785 121.287 249.855 121.074C249.924 120.86 249.959 120.539 249.959 120.112V108.638C249.959 108.199 249.924 107.872 249.855 107.659C249.785 107.445 249.647 107.302 249.44 107.231C249.243 107.16 248.95 107.118 248.556 107.106V106.75C248.799 106.762 249.116 106.774 249.509 106.786C249.901 106.798 250.322 106.803 250.772 106.803C251.177 106.803 251.574 106.798 251.966 106.786C252.371 106.774 252.705 106.762 252.97 106.75Z" fill="white"/>
<path d="M263.11 108.068V108.425C262.718 108.436 262.418 108.484 262.209 108.567C262.014 108.638 261.881 108.781 261.812 108.995C261.742 109.197 261.708 109.517 261.708 109.957V118.793C261.708 119.221 261.742 119.542 261.812 119.755C261.881 119.969 262.014 120.112 262.209 120.183C262.418 120.254 262.718 120.302 263.11 120.325V120.682C262.844 120.658 262.51 120.646 262.107 120.646C261.713 120.634 261.316 120.628 260.912 120.628C260.462 120.628 260.04 120.634 259.648 120.646C259.256 120.646 258.938 120.658 258.697 120.682V120.325C259.089 120.302 259.384 120.254 259.579 120.183C259.787 120.112 259.926 119.969 259.994 119.755C260.063 119.542 260.098 119.221 260.098 118.793V109.957C260.098 109.517 260.063 109.197 259.994 108.995C259.926 108.781 259.787 108.638 259.579 108.567C259.384 108.484 259.089 108.436 258.697 108.425V108.068C258.938 108.08 259.256 108.092 259.648 108.104C260.04 108.116 260.462 108.122 260.912 108.122C261.316 108.122 261.713 108.116 262.107 108.104C262.51 108.092 262.844 108.08 263.11 108.068ZM267.974 109.244C267.974 109.244 267.968 109.309 267.956 109.44C267.945 109.559 267.933 109.684 267.922 109.814C267.922 109.945 267.922 110.01 267.922 110.01L260.999 120.112L261.051 119.345L267.974 109.244ZM270.691 108.068V108.425C270.299 108.436 269.998 108.484 269.792 108.567C269.595 108.638 269.462 108.781 269.394 108.995C269.324 109.197 269.29 109.517 269.29 109.957V118.793C269.29 119.221 269.324 119.542 269.394 119.755C269.462 119.969 269.595 120.112 269.792 120.183C269.998 120.254 270.299 120.302 270.691 120.325V120.682C270.45 120.658 270.131 120.646 269.739 120.646C269.348 120.634 268.925 120.628 268.476 120.628C268.084 120.628 267.686 120.634 267.281 120.646C266.878 120.646 266.543 120.658 266.277 120.682V120.325C266.669 120.302 266.964 120.254 267.161 120.183C267.368 120.112 267.507 119.969 267.576 119.755C267.645 119.542 267.68 119.221 267.68 118.793V109.957C267.68 109.517 267.645 109.197 267.576 108.995C267.507 108.781 267.368 108.638 267.161 108.567C266.964 108.484 266.669 108.436 266.277 108.425V108.068C266.543 108.08 266.878 108.092 267.281 108.104C267.686 108.116 268.084 108.122 268.476 108.122C268.925 108.122 269.348 108.116 269.739 108.104C270.131 108.092 270.45 108.08 270.691 108.068Z" fill="white"/>
<path d="M282 108.068V108.425C281.608 108.436 281.307 108.484 281.101 108.567C280.904 108.638 280.771 108.781 280.701 108.995C280.632 109.197 280.599 109.517 280.599 109.957V118.793C280.599 119.221 280.632 119.542 280.701 119.755C280.771 119.969 280.904 120.112 281.101 120.183C281.307 120.254 281.608 120.302 282 120.325V120.682C281.757 120.658 281.44 120.646 281.048 120.646C280.655 120.634 280.234 120.628 279.785 120.628C279.393 120.628 278.993 120.634 278.59 120.646C278.187 120.646 277.851 120.658 277.586 120.682V120.325C277.978 120.302 278.273 120.254 278.469 120.183C278.677 120.112 278.816 119.969 278.885 119.755C278.953 119.542 278.988 119.221 278.988 118.793V109.957C278.988 109.339 278.908 108.929 278.746 108.727C278.584 108.526 278.239 108.425 277.708 108.425C276.658 108.425 275.913 108.68 275.475 109.191C275.047 109.69 274.834 110.378 274.834 111.257C274.834 111.839 274.91 112.368 275.058 112.843C275.22 113.306 275.515 113.674 275.942 113.947C276.38 114.209 277.009 114.339 277.829 114.339H279.317C279.317 114.339 279.317 114.399 279.317 114.518C279.317 114.636 279.317 114.696 279.317 114.696H277.656C276.755 114.696 276.012 114.589 275.423 114.375C274.834 114.161 274.367 113.882 274.02 113.538C273.686 113.193 273.449 112.813 273.312 112.398C273.173 111.982 273.103 111.578 273.103 111.186C273.103 110.604 273.254 110.082 273.553 109.618C273.865 109.143 274.333 108.769 274.956 108.496C275.579 108.223 276.351 108.086 277.274 108.086C277.482 108.086 277.834 108.092 278.331 108.104C278.827 108.116 279.346 108.122 279.889 108.122C280.269 108.122 280.655 108.116 281.048 108.104C281.44 108.092 281.757 108.08 282 108.068ZM279.161 114.393L279.127 114.696H277.258C276.807 114.696 276.461 114.803 276.218 115.016C275.977 115.23 275.792 115.527 275.664 115.907C275.539 116.275 275.417 116.715 275.301 117.226L274.921 119.007C274.759 119.767 274.516 120.278 274.194 120.539C273.883 120.8 273.507 120.931 273.069 120.931C272.607 120.931 272.244 120.836 271.978 120.646C271.712 120.444 271.459 120.159 271.216 119.791L271.476 119.595C271.638 119.797 271.782 119.957 271.909 120.076C272.036 120.195 272.198 120.26 272.393 120.272C272.648 120.284 272.826 120.177 272.93 119.951C273.045 119.714 273.161 119.334 273.277 118.811L273.675 116.994C273.836 116.257 274.095 115.717 274.454 115.373C274.823 115.016 275.394 114.773 276.166 114.642C276.386 114.607 276.606 114.577 276.824 114.553C277.044 114.529 277.332 114.506 277.691 114.482C278.059 114.446 278.55 114.417 279.161 114.393Z" fill="white"/>
</g>
<defs>
<clipPath id="clip0_115_115">
<rect width="282" height="122" fill="white"/>
</clipPath>
</defs>
</svg>