<svg width="200" height="200" viewBox="0 0 200 200" fill="none" xmlns="http://www.w3.org/2000/svg">
<rect x="2.5" y="2.5" width="195" height="195" rx="22.5" fill="#37EE5F" stroke="black" stroke-width="5"/>
<path d="M124.75 96.7291C133.863 96.7291 141.25 89.2858 141.25 80.1041C141.25 70.9223 133.863 63.4791 124.75 63.4791C115.637 63.4791 108.25 70.9223 108.25 80.1041C108.25 89.2858 115.637 96.7291 124.75 96.7291Z" fill="#EFD358"/>
<path d="M86.25 69.0208C95.3627 69.0208 102.75 61.5775 102.75 52.3958C102.75 43.214 95.3627 35.7708 86.25 35.7708C77.1373 35.7708 69.75 43.214 69.75 52.3958C69.75 61.5775 77.1373 69.0208 86.25 69.0208Z" fill="#EFD358"/>
<path d="M91.75 55.1666H80.75C79.23 55.1666 78 53.9273 78 52.3958C78 50.8642 79.23 49.6249 80.75 49.6249H91.75C93.27 49.6249 94.5 50.8642 94.5 52.3958C94.5 53.9273 93.27 55.1666 91.75 55.1666Z" fill="#B29930"/>
<path d="M130.25 82.8749H119.25C117.73 82.8749 116.5 81.6356 116.5 80.1041C116.5 78.5726 117.73 77.3333 119.25 77.3333H130.25C131.77 77.3333 133 78.5726 133 80.1041C133 81.6356 131.77 82.8749 130.25 82.8749Z" fill="#B29930"/>
<path d="M155.032 130.699L106.851 134.921C102.39 135.311 97.9171 134.322 94.0296 132.083L80.75 124.437H111.736C115.886 124.437 119.25 121.048 119.25 116.867C119.25 113.223 116.675 110.097 113.121 109.425L85.2983 104.169C78.6139 102.906 71.8275 102.271 65.0266 102.271H42.25V142.39L87.4854 161.39C92.4926 163.282 98.0323 163.255 103.129 161.959L163.25 138.292V138.29C163.25 133.821 159.451 130.312 155.032 130.699Z" fill="#FFCA70"/>
<path d="M53.25 154.917H39.5C37.9812 154.917 36.75 153.676 36.75 152.146V99.4999C36.75 97.9696 37.9812 96.7291 39.5 96.7291H53.25C54.7688 96.7291 56 97.9696 56 99.4999V152.146C56 153.676 54.7688 154.917 53.25 154.917Z" fill="#5A7A84"/>
</svg>
