<svg width="200" height="200" viewBox="0 0 200 200" fill="none" xmlns="http://www.w3.org/2000/svg">
<rect x="2.5" y="2.5" width="195" height="195" rx="22.5" fill="#37EE5F" stroke="black" stroke-width="5"/>
<path d="M163 29.0625C144.625 29.0625 142 44.1562 142 49.1875C142 54.2188 142 59.25 147.25 59.25C152.5 59.25 152.5 54.2188 152.5 49.1875C152.5 44.1562 155.125 39.125 163 39.125C170.875 39.125 173.5 44.1562 173.5 49.1875C173.5 74.3438 142 89.4375 126.25 89.4375H73.75C58 89.4375 26.5 74.3438 26.5 49.1875C26.5 44.1562 29.125 39.125 37 39.125C44.875 39.125 47.5 44.1562 47.5 49.1875C47.5 54.2188 47.5 59.25 52.75 59.25C58 59.25 58 54.2188 58 49.1875C58 44.1562 55.375 29.0625 37 29.0625C23.875 29.0625 16 39.125 16 49.1875C16 79.375 52.75 99.5 73.75 99.5H126.25C147.25 99.5 184 79.375 184 49.1875C184 39.125 176.125 29.0625 163 29.0625Z" fill="#E6B85C"/>
<path d="M147.25 29.0625C147.25 24.0287 147.25 19 142 19C136.75 19 63.25 19 58 19C52.75 19 52.75 24.0287 52.75 29.0625C52.75 114.594 89.5 104.531 89.5 114.594V124.656C89.5 134.719 73.75 129.688 73.75 139.75H126.25C126.25 129.688 110.5 134.719 110.5 124.656V114.594C110.5 104.531 147.25 114.594 147.25 29.0625Z" fill="#FFCC66"/>
<path d="M147.25 149.812H52.75C49.852 149.812 47.5 152.064 47.5 154.844V174.969C47.5 177.746 49.852 180 52.75 180H147.25C150.148 180 152.5 177.746 152.5 174.969V154.844C152.5 152.064 150.148 149.812 147.25 149.812Z" fill="#666666"/>
<path d="M126.25 159.875H73.75V169.938H126.25V159.875Z" fill="#E6E6E6"/>
<path fill-rule="evenodd" clip-rule="evenodd" d="M126.25 139.75H73.75C73.75 139.75 58 139.75 58 149.812H142C142 139.75 126.25 139.75 126.25 139.75ZM89.5 124.656H110.5C113.398 124.656 115.75 122.402 115.75 119.625C115.75 116.845 113.398 114.594 110.5 114.594H89.5C86.602 114.594 84.25 116.845 84.25 119.625C84.25 122.402 86.602 124.656 89.5 124.656Z" fill="#E6B85C"/>
<path fill-rule="evenodd" clip-rule="evenodd" d="M110.5 69.3101H105.25V44.1538V39.1226V34.0913H100C98.047 34.0913 96.3591 35.1252 95.4588 36.6447L85.7462 45.955C83.7775 47.8392 83.7775 50.9007 85.7462 52.7849C87.7124 54.6716 90.9044 54.6716 92.8731 52.7849L94.75 50.9837V69.3101H89.5C86.5994 69.3101 84.25 71.5641 84.25 74.3413C84.25 77.1186 86.5994 79.3726 89.5 79.3726H110.5C113.398 79.3726 115.75 77.1186 115.75 74.3413C115.75 71.5641 113.398 69.3101 110.5 69.3101Z" fill="#CCA352"/>
</svg>
