<svg width="200" height="200" viewBox="0 0 200 200" fill="none" xmlns="http://www.w3.org/2000/svg">
<rect x="2.5" y="2.5" width="195" height="195" rx="22.5" fill="#37EE5F" stroke="#1A0101" stroke-width="5"/>
<path d="M69.095 156.586H74.6698C78.1377 156.586 81.4723 158.073 83.9641 160.732C85.6223 162.508 87.8625 163.562 90.6938 163.562C108.81 163.562 140.345 163.562 142.337 163.562C156.418 163.562 161.098 149.351 159.167 141.74C167.367 138.692 168.528 126.263 165.473 120.344C172.469 115.161 171.83 102.121 165.473 99.1734C169.417 99.1734 170.896 97.5452 170.896 91.1932C170.896 80.9101 165.455 79.7552 157.473 79.7552H123.342C133.816 37.8432 110.092 29.6717 103.787 41.1401C103.787 45.81 103.787 49.869 103.787 57.7585C103.787 59.5647 104.102 61.3776 103.571 63.0696C99.685 75.3572 92.2307 84.5359 84.3158 91.4383C83.7489 91.9286 83.4791 92.469 83.0456 93.0498C80.2416 96.7899 73.2026 99.8281 68.8162 99.8281" fill="#FFCA70"/>
<path d="M142.337 167H90.6938C87.1986 167 84.1247 165.687 81.8057 163.203C79.8868 161.155 77.3495 160.024 74.6697 160.024H69.095C67.3792 160.024 65.9908 158.486 65.9908 156.586C65.9908 154.686 67.3792 153.148 69.095 153.148H74.6697C78.9653 153.148 83.0304 154.961 86.1164 158.258C87.2925 159.513 88.7871 160.124 90.6938 160.124H142.337C148.46 160.124 151.88 157.002 153.671 154.387C156.418 150.371 156.897 145.497 156.178 142.67C155.733 140.907 156.612 139.064 158.179 138.48C161.004 137.429 162.402 134.868 163.078 132.904C164.469 128.855 163.981 124.38 162.778 122.05C161.968 120.485 162.393 118.491 163.748 117.487C166.797 115.225 167.586 111.041 167.331 108.144C167.085 105.327 165.915 103.105 164.275 102.346C162.911 101.711 162.138 100.103 162.429 98.4953C162.72 96.8905 163.993 95.7355 165.473 95.7355C167.437 95.7355 167.792 95.7355 167.792 91.1932C167.792 84.6131 165.961 83.193 157.473 83.193H123.342C122.372 83.193 121.46 82.6927 120.872 81.8367C120.283 80.9839 120.092 79.8727 120.35 78.8387C126.201 55.4319 120.941 43.611 114.663 40.5996C111.708 39.1828 108.628 39.8609 106.891 42.2178V57.7585C106.891 58.1915 106.912 58.6246 106.933 59.0544C107.003 60.5148 107.088 62.331 106.503 64.1976C102.947 75.4411 96.1291 85.5128 86.2376 94.141C86.1527 94.2115 86.0497 94.3592 85.8769 94.6177C85.7375 94.8191 85.598 95.0273 85.4373 95.2387C81.8906 99.9725 73.833 103.266 68.8161 103.266C67.1003 103.266 65.7119 101.728 65.7119 99.8281C65.7119 97.9279 67.1003 96.3903 68.8161 96.3903C72.6266 96.3903 78.6015 93.597 80.6568 90.8542L80.9114 90.4882C81.2358 90.0116 81.6784 89.3569 82.4059 88.7291C91.3456 80.9302 97.4842 71.9127 100.643 61.9315C100.825 61.3474 100.782 60.451 100.734 59.417C100.707 58.8664 100.682 58.3124 100.682 57.7585V41.1401C100.682 40.5089 100.84 39.8912 101.134 39.3507C104.347 33.5124 111.071 31.3873 117.131 34.2913C125.622 38.3603 132.467 51.5106 127.332 76.3173H157.473C163.248 76.3173 174 76.3173 174 91.1932C174 94.5572 173.612 98.2367 171.408 100.486C172.545 102.437 173.279 104.824 173.512 107.483C173.979 112.817 172.372 117.89 169.247 121.341C170.517 125.575 170.42 130.866 168.88 135.351C167.604 139.058 165.43 141.962 162.626 143.761C162.996 148.68 161.523 154.296 158.619 158.54C154.884 163.995 149.103 167 142.337 167Z" fill="#656872"/>
<path d="M159.313 144.349H140.394C138.678 144.349 137.29 142.811 137.29 140.911C137.29 139.011 138.678 137.473 140.394 137.473H159.313C161.028 137.473 162.417 139.011 162.417 140.911C162.417 142.811 161.028 144.349 159.313 144.349Z" fill="#656872"/>
<path d="M165.621 123.393H140.394C138.678 123.393 137.29 121.855 137.29 119.955C137.29 118.055 138.678 116.517 140.394 116.517H165.621C167.337 116.517 168.725 118.055 168.725 119.955C168.725 121.855 167.337 123.393 165.621 123.393Z" fill="#656872"/>
<path d="M165.621 102.437H140.394C138.678 102.437 137.29 100.899 137.29 98.9989C137.29 97.0987 138.678 95.561 140.394 95.561H165.621C167.337 95.561 168.725 97.0987 168.725 98.9989C168.725 100.899 167.337 102.437 165.621 102.437Z" fill="#656872"/>
<path d="M65.9423 93.7178H28.1041V163.562H65.9423V93.7178Z" fill="#BDBF6D"/>
<path d="M65.9423 167H28.1041C26.3884 167 25 165.462 25 163.562V93.7178C25 91.8177 26.3884 90.2802 28.1041 90.2802H65.9423C67.6581 90.2802 69.0464 91.8177 69.0464 93.7178V163.562C69.0464 165.462 67.6581 167 65.9423 167ZM31.2084 160.124H62.8381V97.1557H31.2084V160.124Z" fill="#656872"/>
<path d="M43.3309 149.982C43.3309 152.245 41.6727 154.071 39.6356 154.071C37.5954 154.071 35.9434 152.245 35.9434 149.982C35.9434 147.726 37.5954 145.893 39.6356 145.893C41.6727 145.893 43.3309 147.726 43.3309 149.982Z" fill="#656872"/>
<path d="M58.0999 149.982C58.0999 152.245 56.4448 154.071 54.4076 154.071C52.3705 154.071 50.7124 152.245 50.7124 149.982C50.7124 147.726 52.3705 145.893 54.4076 145.893C56.4448 145.893 58.0999 147.726 58.0999 149.982Z" fill="#656872"/>
</svg>
